<svg
        xmlns:svg="http://www.w3.org/2000/svg"
        xmlns:rdf="http://www.w3.org/1999/02/22-rdf-syntax-ns#"
        xmlns:dc="http://purl.org/dc/elements/1.1/"
        xmlns:cc="http://creativecommons.org/ns#"
        xmlns="http://www.w3.org/2000/svg"
        width="64"
        height="64"
        id="svg4136"
        version="1.1"
        viewBox="0 0 64 64">
    <defs>
        <linearGradient>
            <stop
                    style="stop-color:#000000;stop-opacity:1;"
                    offset="0"
                    id="stop4694"
            />
        </linearGradient>
        <filter
                style="color-interpolation-filters:sRGB"
                id="filter4788"
                x="-0.025332392"
                width="1.0506648"
                y="-0.022800762"
                height="1.0456015">
            <feGaussianBlur
                    stdDeviation="0.1311243"
                    id="feGaussianBlur4790"
            />
        </filter>
    </defs>
    <metadata>
        <rdf:RDF>
            <cc:Work>
                <dc:format>image/svg+xml</dc:format>
                <dc:title>Icon of TYPO3-Extension timer</dc:title>
            </cc:Work>
        </rdf:RDF>
    </metadata>
    <g>
        <path
                style="opacity:1;fill:#006600;fill-opacity:0;stroke:#006600;stroke-width:2;stroke-linecap:round;stroke-linejoin:round;stroke-miterlimit:4;stroke-dasharray:none;stroke-dashoffset:0;stroke-opacity:1"
                d="M 21.34,9.39 A 25.02,25.00 0 0 1 51.87,16.80 25.02,25.00 0 0 1 51.07,48.20 25.01,25.00 0 0 1 20.19,54.03 25.02,25.00 0 0 1 7.97,25.10"
        />
        <path
                style="fill:#99ccff;fill-rule:evenodd;stroke:#006600;stroke-width:2;stroke-linecap:round;stroke-linejoin:round;stroke-miterlimit:4;stroke-dasharray:none;stroke-opacity:1"
                d="m 21.26,9.67 c 1.86,4.89 4.31,7.73 3.91,6.78"
        />
        <path
                style="fill:none;fill-rule:evenodd;stroke:#000000;stroke-width:1px;stroke-linecap:butt;stroke-linejoin:miter;stroke-opacity:1"
                d="m 36.75,35.625 0.5,0"
        />
        <path
                style="fill:#ff8f00;fill-opacity:1;fill-rule:evenodd;stroke:#000000;stroke-width:1px;stroke-linecap:butt;stroke-linejoin:miter;stroke-opacity:0"
                d="m 28.91,35.53 c 2.85,2.04 5.86,1.57 7.87,-1.97 0.09,-2.56 -2.47,-3.79 -3.19,-4.58 -9.88,-1.01 -11.03,-1.99 -21.63,-3.35 6.73,3.85 7.04,5.35 16.89,9.90 z"
        />
        <path
                style="opacity:1;fill:#660019;fill-opacity:0.0044643;stroke:#19edff;stroke-width:4;stroke-linecap:round;stroke-linejoin:round;stroke-miterlimit:4;stroke-dasharray:none;stroke-dashoffset:0;stroke-opacity:1"
                d="M 9.71,20.76 A 25.02,25.00 0 0 1 16.84,12.24"
        />
        <path
                style="opacity:1;fill:#006600;fill-opacity:0;stroke:#fffc02;stroke-width:2;stroke-linecap:round;stroke-linejoin:round;stroke-miterlimit:4;stroke-dasharray:none;stroke-dashoffset:0;stroke-opacity:1"
                d="M 17.38,52.28 A 25.02,25.00 0 0 1 7.65,37.72"
        />
        <path
                style="opacity:1;fill:#006600;fill-opacity:0;stroke:#fffc02;stroke-width:2;stroke-linecap:round;stroke-linejoin:round;stroke-miterlimit:4;stroke-dasharray:none;stroke-dashoffset:0;stroke-opacity:1;filter:url(#filter4788)"
                d="M 43.08,9.59 A 25.02,25.00 0 0 1 55.50,23.40"
        />
        <path
                style="opacity:1;fill:#006600;fill-opacity:0;stroke:#fffc02;stroke-width:2;stroke-linecap:round;stroke-linejoin:round;stroke-miterlimit:4;stroke-dasharray:none;stroke-dashoffset:0;stroke-opacity:1"
                d="M 54.11,43.84 A 25.02,25.00 0 0 1 38.78,56.03"
        />
        <rect x="35" y="2" width="30" height="3" fill="darkblue" />
        <rect x="35" y="10" width="30" height="3" fill="darkblue" />
        <rect x="35" y="18" width="30" height="3" fill="red" />
        <rect x="35" y="26" width="30" height="3" fill="darkblue" />
        <rect x="35" y="34" width="30" height="3" fill="darkblue" />
        <rect x="35" y="42" width="30" height="3" fill="darkblue" />
        <rect x="35" y="50" width="30" height="3" fill="darkblue" />
    </g>
</svg>
